<svg xmlns="http://www.w3.org/2000/svg" viewBox="0 0 8.23 13.87"><defs><style>.cls-1{fill:#231f20;}.cls-2{fill:#fff;stroke:#231f20;stroke-miterlimit:10;}</style></defs><title>fraction</title><g id="Layer_2" data-name="Layer 2"><g id="Layer_1-2" data-name="Layer 1"><path class="cls-1" d="M6.94,8.69c-.13.15-.25.29-.35.43s-.19.25-.26.36-.12.19-.17.27l-.1.2-.24.33-.17.26a1.12,1.12,0,0,0-.11.22.37.37,0,0,0,0,.16,2.13,2.13,0,0,0,.41.69l.48.66a1.58,1.58,0,0,0,.17.23l.11.11.08.1a.85.85,0,0,1,.09.14,1.52,1.52,0,0,0,.38.41c.13.09.2.18.2.27s0,.08-.09.12l-.13.12v.07h0l0,0h0a.19.19,0,0,1-.14,0,.4.4,0,0,1-.21-.08v0a3.22,3.22,0,0,0-.58-1c-.1-.12-.22-.27-.35-.46A2.83,2.83,0,0,0,5.59,12a.83.83,0,0,1-.14-.21,2.22,2.22,0,0,0-.16-.25.24.24,0,0,0-.17-.1.21.21,0,0,0-.12.05.79.79,0,0,0-.14.13l-.33.46-.33.45a3.35,3.35,0,0,0-.26.42l-.17.37a.63.63,0,0,0-.08.21v0c-.08.18-.13.27-.16.27h0a.35.35,0,0,0-.14,0l-.08,0a.6.6,0,0,1-.33-.2l.08-.1s0-.06,0-.07,0,0,0,0a.77.77,0,0,0,.46-.5,1.58,1.58,0,0,1,.22-.29l.2-.24.19-.26.36-.51.41-.63-.58-.77a6.15,6.15,0,0,0-.68-.83,1.15,1.15,0,0,0-.47-.31s0-.05,0-.07a1.83,1.83,0,0,1,.13-.23.51.51,0,0,1,.27-.24l0,0a.33.33,0,0,1,.22.24c0,.08.09.23.29.45s.42.5.68.86.44.53.51.53,0,0,.08-.05l.27-.4A3.6,3.6,0,0,0,6,9.5a2,2,0,0,0,.17-.6.6.6,0,0,0,.13-.14.44.44,0,0,1,.1-.12l.15-.05.24,0a.12.12,0,0,1,.09.06S6.92,8.69,6.94,8.69Z"/><path class="cls-2" d="M7.94,3.9.29,9.27"/><path class="cls-1" d="M3.18.06A.14.14,0,0,1,3.1.17.3.3,0,0,0,3,.26a1,1,0,0,0-.08.27,4.84,4.84,0,0,0-.1.64,9.21,9.21,0,0,0,0,1V3.2l0,.32c0,.06,0,.13,0,.22s0,.16,0,.19a3.2,3.2,0,0,0,.14.72s0,.06-.06.06.11.1.1.13l0,.08v0L2.68,5,2.42,5,2.28,5a.14.14,0,0,0,0-.06.25.25,0,0,1,0-.07l0-.1a5.1,5.1,0,0,0,.16-1.33l0-1.53c0-.16,0-.32,0-.51l0-.23s0,0,0-.11,0-.09-.09-.09l-.1,0a.34.34,0,0,0-.14.13v0a.16.16,0,0,0-.1,0s0,.08-.12.14a.58.58,0,0,0-.15.28l-.09,0a.3.3,0,0,0-.13,0,.24.24,0,0,1-.12,0h0l0,0a0,0,0,0,1,0,0l-.05-.08a.58.58,0,0,1,0-.13.08.08,0,0,1,0-.05.53.53,0,0,0,.23-.21.31.31,0,0,1,0-.08.39.39,0,0,0,0-.06v0l.14-.05.09,0h0l.05,0L1.93.94,2.13.8A3.69,3.69,0,0,1,2.67.19s0,0,0,0A.7.7,0,0,1,3.16,0l0,.05Z"/></g></g></svg>