<svg xmlns="http://www.w3.org/2000/svg" viewBox="0 0 25.6 17.06"><defs><style>.cls-1{fill:#010101;}</style></defs><title>backspace</title><g id="Layer_2" data-name="Layer 2"><g id="Layer_1-2" data-name="Layer 1"><path class="cls-1" d="M25.17,17.06H7.25a.41.41,0,0,1-.32-.15L.1,8.81a.44.44,0,0,1,0-.55L6.93.15A.44.44,0,0,1,7.25,0H25.17a.43.43,0,0,1,.43.43V16.64A.43.43,0,0,1,25.17,17.06ZM7.45,16.21H24.74V.85H7.45L1,8.53Z"/><path class="cls-1" d="M18.77,12.37a.42.42,0,0,1-.3-.12L11.64,5.42a.43.43,0,0,1,0-.6.43.43,0,0,1,.61,0l6.82,6.82a.43.43,0,0,1,0,.61.42.42,0,0,1-.3.12Z"/><path class="cls-1" d="M11.94,12.37a.46.46,0,0,1-.3-.12.45.45,0,0,1,0-.61l6.83-6.82a.42.42,0,1,1,.6.6l-6.82,6.83A.47.47,0,0,1,11.94,12.37Z"/></g></g></svg>