<svg xmlns="http://www.w3.org/2000/svg" viewBox="0 0 8.13 13.92"><title>fraction-1</title><g id="Layer_2" data-name="Layer 2"><g id="Layer_1-2" data-name="Layer 1"><path d="M0,8.88,7.64,3.52c.49.44.77.75.09,1.22C5.53,6.25,3.37,7.82,1.15,9.29.91,9.45.39,9.19,0,9.12Z"/><path d="M3.12,13.92a9.23,9.23,0,0,1,1-1.67A1.42,1.42,0,0,0,4,9.93c-.28-.28-.55-.58-.82-.86.38-.34.38-.34,2.09,1.5L6.59,8.52l.31.19a5.64,5.64,0,0,1-.31.53C5.42,11,5.44,11,6.77,12.67a4.39,4.39,0,0,1,.43,1.25H6.72l-1.6-2.74L3.6,13.92Z"/><path d="M3.12,0,2.75,5,2.5,5a5.09,5.09,0,0,1-.12-.66c0-1.1-.13-2.21-.09-3.31,0-.35.38-.68.59-1Z"/></g></g></svg>