<svg xmlns="http://www.w3.org/2000/svg" viewBox="0 0 11.34 10.16"><defs><style>.cls-1{fill:#231f20;}</style></defs><title>squared</title><g id="Layer_2" data-name="Layer 2"><g id="Layer_1-2" data-name="Layer 1"><path class="cls-1" d="M6.23,2.05c-.2.23-.38.46-.55.67l-.4.56A4.78,4.78,0,0,0,5,3.71L4.86,4c-.15.2-.28.37-.37.51A4.34,4.34,0,0,0,4.21,5,2.09,2.09,0,0,0,4,5.28.73.73,0,0,0,4,5.54a3.42,3.42,0,0,0,.65,1.07l.74,1A2.36,2.36,0,0,0,5.64,8l.17.16.13.17.14.21a2.25,2.25,0,0,0,.6.65q.3.21.3.42a.27.27,0,0,1-.14.2.92.92,0,0,0-.2.17v.12h0l0,0a.06.06,0,0,0,0,0h0a.37.37,0,0,1-.22.08A.78.78,0,0,1,6,10s0,0,0,0a5.27,5.27,0,0,0-.9-1.53,6.12,6.12,0,0,1-.55-.71,4.14,4.14,0,0,0-.41-.54,1.32,1.32,0,0,1-.22-.33,4.56,4.56,0,0,0-.25-.39.34.34,0,0,0-.26-.15.3.3,0,0,0-.19.07A1.39,1.39,0,0,0,3,6.62l-.52.71c-.21.27-.38.51-.52.71a4.6,4.6,0,0,0-.39.66l-.28.57a.94.94,0,0,0-.12.33v0c-.12.28-.21.42-.25.42h0a.78.78,0,0,0-.21,0l-.13.05A.94.94,0,0,1,0,9.84a1.83,1.83,0,0,1,.13-.16c.06-.06.09-.09.09-.11l-.06,0a1.19,1.19,0,0,0,.73-.78,3.37,3.37,0,0,1,.33-.45l.32-.38.3-.41c.15-.19.33-.45.56-.79l.65-1L2.14,4.53a11.93,11.93,0,0,0-1.07-1.3,1.65,1.65,0,0,0-.74-.47.24.24,0,0,1-.07-.13,2.39,2.39,0,0,1,.2-.35.74.74,0,0,1,.43-.37l0-.08a.52.52,0,0,1,.33.38,1.59,1.59,0,0,0,.45.7c.31.34.66.78,1.08,1.34s.68.84.8.84.07,0,.11-.09l.43-.62a6.41,6.41,0,0,0,.6-1.06A3,3,0,0,0,5,2.37a.58.58,0,0,0,.2-.21A1,1,0,0,1,5.36,2a.77.77,0,0,1,.23-.09,2.13,2.13,0,0,1,.37,0s.09,0,.15.09A.31.31,0,0,0,6.23,2.05Z"/><path class="cls-1" d="M11.33,4.16a.31.31,0,0,1,0,.1.56.56,0,0,1-.07.23.88.88,0,0,0-.06.21v0h0l-.07,0-.11,0-.06,0s0,0-.08,0l-.12,0a.94.94,0,0,0-.27,0H10a7,7,0,0,0-.78,0c-.28,0-.52.07-.71.11a1.55,1.55,0,0,0-.36.1H8.1a.19.19,0,0,1-.17-.1.35.35,0,0,1-.07-.15.18.18,0,0,1,0-.09.77.77,0,0,1,.18-.15l.2-.13s.08-.06.19-.07l.24,0c0-.12,0-.18,0-.19s0,0,0,0h0s0,0,0,.05a.1.1,0,0,0,0,.08,5.73,5.73,0,0,0,1.34-1.25,2.17,2.17,0,0,0,.56-1.29V1.21a.83.83,0,0,0,0-.22,1.24,1.24,0,0,0-.1-.2A.9.9,0,0,0,10.41.6a1.56,1.56,0,0,0-.2-.16L10,.34a3.39,3.39,0,0,0-.63,0,.19.19,0,0,0-.12,0l-.11,0h0C8.88.5,8.76.6,8.76.68l-.07,0H8.61s-.07,0-.09.1h0c-.05,0-.09,0-.13-.09a.39.39,0,0,1,0-.2A.21.21,0,0,1,8.42.33a1.07,1.07,0,0,1,.35-.1A3.34,3.34,0,0,0,9.29.09,1.89,1.89,0,0,1,9.89,0l.17,0,.1,0h.08a.8.8,0,0,1,.59.29,1.07,1.07,0,0,1,.27.76,2.41,2.41,0,0,1-.53,1.4A8.69,8.69,0,0,1,9,4.12s0,0,0,0,0,0,0,0,0,0,0,0,0,.07.09.06l1.46-.06.17,0a.25.25,0,0,0,.17,0l.08,0H11s0,0,0,0l.16,0A.56.56,0,0,1,11.33,4.16Z"/></g></g></svg>